<?xml version="1.0" encoding="utf-8"?>
<!-- Svg Vector Icons : http://www.onlinewebfonts.com/icon -->
<!DOCTYPE svg PUBLIC "-//W3C//DTD SVG 1.1//EN" "http://www.w3.org/Graphics/SVG/1.1/DTD/svg11.dtd">
<svg version="1.1" xmlns="http://www.w3.org/2000/svg" xmlns:xlink="http://www.w3.org/1999/xlink" x="0px" y="0px" viewBox="0 0 1000 1000" enable-background="new 0 0 1000 1000" xml:space="preserve">
<metadata> Svg Vector Icons : http://www.onlinewebfonts.com/icon </metadata>
<g><g transform="translate(0.000000,512.000000) scale(0.100000,-0.100000)"><path d="M3926.4,5059.6c-470.4-73.6-937-309.8-1270-642.8c-141.3-143.3-365.9-447.2-394.9-538.2c-9.7-29-23.2-38.7-44.5-31c-19.4,5.8-92.9,32.9-168.4,58.1c-358.2,129.7-791.8,5.8-1105.5-313.6c-195.5-197.5-340.7-468.5-429.8-795.7c-44.5-166.5-50.3-220.7-50.3-544c-1.9-311.7,3.9-381.4,44.5-542.1c25.2-100.7,65.8-220.7,92.9-267.2c60-104.6,180-187.8,247.8-170.4c46.5,11.6,48.4,9.7,48.4-75.5c0-102.6,31-172.3,110.4-243.9c79.4-75.5,135.5-98.7,197.5-85.2c52.3,11.6,54.2,7.7,67.8-83.2c13.6-102.6,63.9-174.2,158.8-222.6c81.3-40.7,180-54.2,220.7-32.9c32.9,17.4,40.7,9.7,58.1-56.1c38.7-143.3,220.7-240.1,360.1-195.5c38.7,13.6,71.6,19.4,75.5,15.5c3.9-1.9,29-58.1,56.1-122c120-269.1,408.5-625.3,698.9-861.5l60-48.4l-11.6-377.5l-9.7-377.5l-232.3-81.3c-1045.4-369.8-1877.9-1088-2303.9-1988.3c-116.2-243.9-226.5-582.7-269.1-824.7C85.3-4667,87.2-4723.1,151.1-4785l46.5-48.4h3664.9h3664.9l-123.9,73.6c-67.8,38.7-170.4,112.3-228.4,164.6l-104.5,91H5724.9H4379.4l5.8,110.4l5.8,110.4l764.7,460.8c420.1,253.6,776.4,476.3,789.9,493.7c42.6,60,25.2,139.4-83.2,352.4l-104.5,211l230.4,5.8c255.6,7.8,296.2,27.1,321.4,143.3c9.7,52.3-13.5,92.9-201.3,348.5c-118.1,158.8-209.1,294.3-205.2,298.2c3.9,5.8,100.7-36.8,214.9-94.9c218.8-110.4,515-300.1,667.9-429.8c54.2-44.5,102.6-71.6,110.4-61.9c9.7,9.7,56.1,67.8,104.5,127.8l89.1,110.4l-168.4,123.9c-207.2,154.9-431.7,294.3-635,396.9c-187.8,92.9-565.3,245.9-689.2,276.9l-92.9,21.3v381.4v379.4l151,118.1c249.8,195.5,497.6,509.2,627.3,797.6c32.9,71.6,60,131.7,63.9,135.5c1.9,1.9,36.8-9.7,77.4-27.1c145.2-60,364,42.6,395,185.9c9.7,46.5,23.2,65.8,42.6,60c52.3-17.4,149.1-3.9,211,27.1c102.6,52.3,152.9,122,166.5,226.5c13.6,92.9,13.6,94.9,69.7,83.2c40.7-9.7,77.4,0,139.4,36.8c114.2,67.8,174.2,166.5,172.3,286.5c-1.9,87.1,2,91,42.6,81.3c94.9-23.2,261.4,122,298.2,257.5c65.8,249.7,81.3,323.3,100.7,513c40.7,393-29,787.9-205.2,1150c-172.3,354.3-443.3,609.8-762.8,718.3c-218.8,73.6-503.4,56.1-737.6-44.5l-85.2-38.7l-92.9,152.9c-315.6,524.7-801.5,882.8-1399.7,1031.9C4559.4,5067.3,4131.6,5090.6,3926.4,5059.6z M4729.8,4705.3c350.4-91,627.3-249.8,882.8-505.3c253.6-253.6,412.4-528.5,507.2-882.8l50.4-183.9l-3.9-1161.6L6164.4,810l-46.5-183.9c-91-354.3-249.8-631.1-515-890.6c-259.4-257.5-544-416.2-904.1-507.2c-245.9-61.9-660.2-61.9-906,0c-367.8,92.9-646.6,249.7-913.8,515c-263.3,265.2-422,544-515,913.8c-44.5,168.4-44.5,191.7-44.5,1324.2v1151.9l50.3,183.9c209.1,757,774.4,1277.8,1546.9,1423C4131.6,4780.8,4497.5,4765.3,4729.8,4705.3z M2005.8,3586.3c83.3-40.7,92.9-52.3,83.3-94.9c-5.8-27.1-23.2-108.4-40.7-183.9c-17.4-77.4-36.8-273-42.6-456.9l-11.6-321.4l-79.4-21.3c-207.2-56.1-416.2-249.8-493.7-456.9c-56.1-149.1-56.1-377.5,0-526.6c77.4-207.1,286.5-400.8,493.7-456.9l77.4-21.3l25.2-213c19.4-160.7,19.4-216.8,1.9-234.3c-38.7-36.8-96.8,56.1-96.8,154.9c0,92.9-42.6,152.9-123.9,174.2c-48.4,11.6-166.5-36.8-166.5-69.7c0-34.8-56.1-19.4-77.4,21.3c-13.6,21.3-25.2,89.1-29,149.1c-3.9,89.1-15.5,116.2-58.1,153c-60,54.2-110.4,56.1-187.8,11.6c-54.2-32.9-58.1-32.9-87.1,3.9c-21.3,29-25.2,69.7-17.4,170.4c11.6,127.8,9.7,133.6-44.5,189.7c-62,61.9-125.8,71.6-189.7,27.1c-34.8-25.2-42.6-25.2-69.7,5.8c-100.7,114.2-137.5,813.1-56.2,1117.1c52.3,195.5,189.7,470.4,302,611.8c102.6,127.8,259.4,240.1,402.7,292.3C1661.2,3661.8,1878.1,3650.2,2005.8,3586.3z M6969.8,3617.2c139.4-40.7,323.3-170.4,425.9-298.1c112.3-143.3,247.8-418.2,300.1-611.8c56.1-211,62-677.6,9.7-919.6c-40.7-187.8-71.6-234.3-129.7-197.5c-46.5,27.1-125.8,31-174.2,3.9c-52.3-27.1-75.5-118.1-63.9-245.9c11.6-145.2-21.3-201.3-98.8-164.6c-133.6,60-243.9-11.6-243.9-158.7c0-98.7-27.1-185.9-58.1-185.9c-11.6,0-40.6,23.2-65.8,52.3c-34.8,38.7-63.9,52.3-116.2,52.3c-102.6,0-145.2-52.3-156.8-189.7c-11.6-156.8-67.8-214.9-122-125.8c-21.3,32.9-21.3,73.6-2,218.8l23.2,178.1l79.4,25.2c199.4,60,398.8,253.6,476.3,460.8c60,160.7,50.3,414.3-23.2,571.1c-89.1,191.7-274.9,360.1-464.6,420.1l-73.6,25.2v234.2c0,245.9-17.4,396.9-69.7,619.5c-31,125.8-31,133.6,3.9,158.8C6553.5,3636.6,6789.7,3671.4,6969.8,3617.2z M1980.7,1787.7c0-213-7.7-387.2-15.5-387.2c-31,0-174.2,106.5-214.9,156.8c-21.3,29-50.3,91-63.9,141.3c-27.1,104.5-1.9,234.3,63.9,319.4c40.7,50.3,183.9,156.8,214.9,156.8C1972.9,2174.9,1980.7,2000.7,1980.7,1787.7z M6706.5,1994.9c137.5-187.8,77.4-433.7-135.5-551.8l-79.4-44.5V1778v379.5l81.3-44.5C6615.5,2087.8,6677.4,2035.5,6706.5,1994.9z M3471.4-994.3c267.2-100.7,435.6-129.7,755-129.7c340.7-1.9,518.8,27.1,799.6,131.7l168.4,63.9v-453c0-520.8-19.4-652.4-127.8-832.5c-127.8-211-304-354.3-526.6-429.8c-164.6-56.1-443.4-56.1-609.8,0c-292.3,96.8-538.2,348.5-621.5,635c-25.2,85.2-31,205.2-31,598.2c0,460.8,1.9,491.8,34.8,478.2C3330.1-940.1,3401.7-969.2,3471.4-994.3z M2561.5-1974c0-3.9-91-131.7-203.3-284.6c-218.8-300.1-243.9-365.9-164.6-445.3c42.6-42.6,34.8-42.6,296.2-38.7c102.6,1.9,187.8-1.9,187.8-9.7c0-5.8-48.4-106.5-106.5-222.6c-112.3-224.6-127.8-307.8-71.6-364c19.4-19.4,379.5-243.9,803.4-497.6l768.6-464.6v-100.7v-102.6H2271.1c-1630.1,0-1800.5,3.9-1800.5,31c0,17.4,17.4,98.8,38.7,182c242,948.6,869.3,1711.4,1810.2,2201.2C2559.5-1964.3,2561.5-1964.3,2561.5-1974z M3055.2-2248.9c110.4-276.8,311.7-681.5,575-1167.4c106.5-195.5,191.7-356.2,187.8-360.1c-3.9-3.9-232.3,127.8-505.3,292.4l-499.5,296.2l147.1,294.3c154.9,307.8,162.6,350.4,83.2,418.2c-27.1,25.2-87.1,34.9-228.4,42.6l-191.7,9.7l158.8,216.8c85.2,118.1,162.6,209.1,168.4,203.3C2956.4-2010.8,3002.9-2121.1,3055.2-2248.9z M5686.2-2216c81.3-108.4,147.1-201.4,147.1-207.2s-67.8-9.7-149.1-9.7c-251.7,0-334.9-40.7-334.9-162.6c0-29.1,60-172.3,135.5-321.4l135.5-269.1l-485.9-292.3c-269.1-160.7-489.8-288.5-493.7-284.6c-3.9,3.9,89.1,180,207.2,393c240.1,425.9,462.7,879,559.5,1130.6c34.8,91,69.7,185.9,81.3,211C5510-1972,5500.3-1964.3,5686.2-2216z M4226.4-2982.6c242-1.9,296.2,3.9,396.9,40.7c63.9,23.2,118.1,40.6,120,38.7c5.8-7.8-507.2-942.8-516.9-942.8c-9.7,0-503.4,915.7-503.4,935.1c0,5.8,50.3-7.7,112.3-29C3928.3-2976.8,3988.3-2982.6,4226.4-2982.6z"/><path d="M3924.4,1216.6c-538.2-96.8-985.4-383.3-1182.9-758.9c-77.4-143.3-81.3-222.6-15.5-286.5c60-62,125.8-62,236.2,3.9c71.6,40.6,120,54.2,247.8,60c154.9,7.7,160.7,7.7,304-71.6C3637.9,95.6,3674.7,84,3775.4,84c133.6,0,211,23.2,336.9,100.7s216.8,73.6,346.5-13.6c197.5-133.6,394.9-139.4,609.8-21.3c153,83.3,220.7,87.1,406.6,19.4c205.2-73.6,228.4-75.5,290.4-23.2c129.7,112.3,44.5,329.1-232.3,606c-182,180-364,290.4-619.5,375.6C4574.9,1239.8,4226.4,1272.7,3924.4,1216.6z M4671.7,879.7c191.7-52.3,431.7-172.3,551.8-278.8c87.1-79.4,91-85.2,42.6-77.4c-75.5,15.5-220.7-27.1-329.1-92.9c-118.1-71.6-214.9-73.6-305.9-5.8c-118.1,91-211,123.9-350.4,123.9c-114.2,0-147.1-9.7-278.8-77.4c-83.2-42.6-176.2-77.4-207.1-77.4c-31,0-108.4,29-174.2,65.8c-125.8,69.7-189.7,89.1-307.8,92.9c-40.6,1.9-73.6,3.9-73.6,5.8c0,3.9,46.5,40.7,102.6,83.2c182,137.5,400.8,230.4,648.6,274.9C4135.4,943.6,4509.1,922.3,4671.7,879.7z"/><path d="M8381.1,4412.9c-307.8-114.2-418.2-503.4-211-747.3c102.6-118.1,201.3-162.6,364-162.6c162.6,0,261.4,44.5,362,162.6c247.8,286.5,54.2,739.6-327.2,766.7C8499.2,4438.1,8427.6,4430.4,8381.1,4412.9z M8642.5,4074.1c71.6-73.6,75.5-158.8,7.7-224.6c-98.7-100.7-280.7-31-280.7,106.5c0,77.4,91,174.2,164.6,174.2C8565,4130.3,8607.6,4107.1,8642.5,4074.1z"/><path d="M9345.3,2959c-63.9-31-120-79.4-154.9-129.7c-50.3-71.6-56.2-96.8-56.2-230.4c0-137.5,3.9-154.9,60-224.6c166.5-209.1,466.6-211,633.1-1.9c63.9,79.4,87.1,207.1,63.9,334.9c-17.4,87.1-145.2,232.3-230.4,259.4C9511.7,3011.3,9447.9,3011.3,9345.3,2959z M9565.9,2674.4c38.7-38.7,29-127.8-15.5-141.3c-65.8-21.3-116.2,7.7-116.2,65.8s31,98.7,77.4,98.7C9529.2,2697.6,9552.4,2688,9565.9,2674.4z"/><path d="M8710.2,1524.4c-110.3-40.7-197.5-112.3-257.5-216.8c-44.5-75.5-54.2-114.2-54.2-226.5c0-112.3,9.7-151,54.2-226.5c152.9-263.3,489.8-327.2,710.5-135.5c224.6,191.7,228.4,524.7,7.8,718.3C9039.3,1551.5,8872.9,1584.4,8710.2,1524.4z M8987.1,1195.3c135.5-170.4-79.4-375.6-232.3-222.6c-62,63.9-69.7,112.3-27.1,195.5c32.9,63.9,52.3,73.6,149.1,75.5C8930.9,1245.6,8956.1,1234,8987.1,1195.3z"/><path d="M7331.8-78.6l-56.2-46.5l-5.8-348.5c-7.7-414.3,5.8-472.4,125.8-505.3c40.7-11.6,102.6-21.3,137.5-21.3h62v-567.2v-567.3l-147.1-94.9c-294.3-193.6-532.4-520.8-617.6-851.8c-44.5-168.4-40.7-485.9,9.7-677.6c123.9-493.7,524.6-894.4,1026.1-1030c172.3-46.5,544-46.5,716.3,0c402.7,110.4,729.9,379.5,919.6,753.1c118.1,236.2,153,404.6,139.4,698.9c-11.6,284.6-65.8,462.7-205.2,677.6c-104.5,158.8-342.7,389.2-474.3,460.8l-89.1,46.4v573.1v573l112.3,11.6c87.1,9.7,120,23.2,154.9,62c40.7,48.4,42.6,65.8,42.6,416.2c0,358.2,0,365.9-46.5,420.1l-46.5,54.2L8237.9-36L7386-30.2L7331.8-78.6z M8872.9-516.1V-671H8234h-638.9v154.9v154.9H8234h638.9V-516.1z M8545.7-1594.5c0-410.4,7.8-617.6,23.2-662.1c19.4-56.2,46.5-79.4,156.8-135.5c162.6-81.3,364-267.2,455-418.2c65.8-108.4,120-245.9,147.1-371.7l13.6-63.9H8224.3H7107.2l13.6,63.9c71.6,329.1,292.3,623.4,584.7,774.4c77.4,40.7,152.9,92.9,170.4,116.2c25.2,34.9,29,137.5,29,666v625.3h319.4h319.4L8545.7-1594.5z M9289.1-3617.6c-87.1-414.3-383.3-737.6-782.2-855.7c-154.9-46.5-466.6-42.6-629.2,7.8c-257.5,79.4-505.3,292.3-631.1,544c-44.5,87.1-116.2,305.9-116.2,354.3c0,5.8,487.9,11.6,1086.1,11.6h1086.1L9289.1-3617.6z"/></g></g>
</svg>